# xmcd
#
# Track frame offsets: 
#        150
#        13445
#        26246
#        39938
#        69490
#        89130
#        101413
#        115085
#        135637
#        145166
#        171564
#        187326
#        204904
#        223898
#        245188
#
# Disc length: 3444 seconds
#
# Revision: 6
# Processed by: cddbd v1.5.1PL0 Copyright (c) Steve Scherf et al.
# Submitted via: ExactAudioCopy v0.95b2
#
DISCID=ee0d720f
DTITLE=Various Artist - House of Blues - Essential Blues - Piano [CD1)
DYEAR=1997
DGENRE=Blues
TTITLE0=Big Maceo Merriweather - Chicago Breakdown
TTITLE1=Amos Milburn - Chicken Shack Boogie
TTITLE2=Lafayette Leake - Slow Leake
TTITLE3=Dr. John - Didn't He Ramble - Closer Walk With Thee
TTITLE4=Otis Spann - Otis Blues
TTITLE5=Roosevelt Sykes - Blues
TTITLE6=Floyd Dixon - San Francisco Blues
TTITLE7=Albert Ammons and Meade Lux Lewis - Twos and Fews
TTITLE8=Professor Longhair - Willie Fugal's Blues
TTITLE9=Pinetop Perkins - Going Down Slow
TTITLE10=James Booker - Pop's Dilemma
TTITLE11=Champion Jack Bupree - Sporting Life Blues
TTITLE12=Robert Shaw - The Ma Grinder
TTITLE13=Speckled Red - Four O'Clock Blues
TTITLE14=Skip James - All Night Long
EXTD=LABEL =Platinum Entertainment, Inc.\nID =5141613132\nUPC =7514
EXTD=16-1313-20\nCOPYRIGHT =1997\n*****\nYEAR: 1997
EXTT0=Big Maceo Merriweather
EXTT1=Amos Milburn
EXTT2=Lafayette Leake
EXTT3=Dr. John
EXTT4=Otis Span
EXTT5=Roosevelt Sykes
EXTT6=Floyd Dixon
EXTT7=Albert Ammons and Meade Lux Lewis
EXTT8=Professor Longhair
EXTT9=Pinetop Perkins
EXTT10=James Booker
EXTT11=Champion Jack Dupree
EXTT12=Robert Shaw
EXTT13=Speckled Red
EXTT14=Skip James
PLAYORDER=
